<?xml version="1.0" encoding="utf-8"?>
<!DOCTYPE svg PUBLIC "-//W3C//DTD SVG 1.1//EN" "http://www.w3.org/Graphics/SVG/1.1/DTD/svg11.dtd">
<svg version="1.1" id="图形" xmlns="http://www.w3.org/2000/svg" xmlns:xlink="http://www.w3.org/1999/xlink" x="0px" y="0px" width="1024px" height="1024px" viewBox="0 0 1024 1024" enable-background="new 0 0 1024 1024" xml:space="preserve">
  <path fill="#BEAD80" d="M530.371 742.391c-244.568 0-443.528-198.978-443.528-443.511 0-30.927 3.879-61.575 10.234-91.636l55.567 0c-7.256 29.921-11.395 60.623-11.395 91.636 0 214.507 174.563 389.087 389.122 389.087 214.615 0 389.143-174.58 389.143-389.087 0-214.613-174.527-389.158-389.143-389.158-92.325 0-181.849 33.003-252.152 92.882l-8.97 7.585-136.433-15.723 31.03 102.51-50.978 0.556c0.329-0.658-56.381-165.438-56.381-165.438l195.601 21.541c78.685-63.479 177.039-98.319 278.282-98.319 244.571 0 443.55 198.961 443.55 443.564C973.921 543.413 774.942 742.391 530.371 742.391zM818.597 456.833c0-13.766-11.169-24.952-24.97-24.952L271.933 431.881c-13.8 0-24.969 11.187-24.969 24.952l0 0c0 13.783 11.169 24.97 24.969 24.97l521.694 0C807.428 481.803 818.597 470.616 818.597 456.833L818.597 456.833zM818.597 297.132c0-13.783-11.169-24.952-24.97-24.952L271.933 272.18c-13.8 0-24.969 11.169-24.969 24.952l0 0c0 13.781 11.169 24.966 24.969 24.966l521.694 0C807.428 322.098 818.597 310.913 818.597 297.132L818.597 297.132zM818.597 139.122c0-13.782-11.169-24.936-24.97-24.936L271.933 114.186c-13.8 0-24.969 11.153-24.969 24.936l0 0c0 13.785 11.169 24.971 24.969 24.971l521.694 0C807.428 164.093 818.597 152.907 818.597 139.122L818.597 139.122z" transform="translate(0, 812) scale(1, -1)"/>
</svg>
