<?xml version="1.0" encoding="utf-8"?>
<!DOCTYPE svg PUBLIC "-//W3C//DTD SVG 1.1//EN" "http://www.w3.org/Graphics/SVG/1.1/DTD/svg11.dtd">
<svg version="1.1" id="图形" xmlns="http://www.w3.org/2000/svg" xmlns:xlink="http://www.w3.org/1999/xlink" x="0px" y="0px" width="1024px" height="1024px" viewBox="0 0 1024 1024" enable-background="new 0 0 1024 1024" xml:space="preserve">
  <path fill="#fff" d="M690.80485 470.1881c11.497868 0 22.873963-0.828878 34.156938-2.115174C694.269765 611.017546 541.48094 717.170215 367.076818 717.170215c-194.978716 0-354.697371-132.88859-354.697371-301.652248 0-97.41261 53.137221-177.409572 141.934616-239.469l-35.475979-106.703207 123.997082 62.182224c44.367487-8.768711 79.966263-17.783015 124.241652-17.783015 11.130502 0 22.168905 0.551562 33.115212 1.410116-6.928806 23.701818-10.946306 48.538483-10.946306 74.324776C389.245723 344.444235 522.318508 470.1881 690.80485 470.1881zM500.088204 566.37479c26.707268 0 44.398186-17.599843 44.398186-44.275389 0-26.584472-17.690918-44.398186-44.398186-44.398186-26.584472 0-53.260018 17.814738-53.260018 44.398186C446.828186 548.774947 473.504756 566.37479 500.088204 566.37479zM251.84947 477.700191c-26.584472 0-53.41249 17.814738-53.41249 44.398186 0 26.675546 26.829042 44.275389 53.41249 44.275389 26.583448 0 44.275389-17.599843 44.275389-44.275389C296.124859 495.514929 278.432918 477.700191 251.84947 477.700191zM1014.533906 193.710208c0 141.841495-141.903917 257.437234-301.283858 257.437234-168.763658 0-301.682947-115.595738-301.682947-257.437234 0-142.025691 132.919289-257.376858 301.682947-257.376858 35.322483 0 70.951959 8.892531 106.427938 17.785062l97.28879-53.290717-26.674523 88.673575C961.488783 42.914784 1014.533906 113.743946 1014.533906 193.710208zM615.438349 238.108395c-17.661242 0-35.475979 17.569144-35.475979 35.505655 0 17.661242 17.814738 35.44528 35.475979 35.44528 26.830065 0 44.399209-17.784038 44.399209-35.44528C659.837558 255.677539 642.268414 238.108395 615.438349 238.108395zM810.539862 238.108395c-17.539468 0-35.230386 17.569144-35.230386 35.505655 0 17.661242 17.690918 35.44528 35.230386 35.44528 26.584472 0 44.399209-17.784038 44.399209-35.44528C854.939071 255.677539 837.124334 238.108395 810.539862 238.108395z" transform="translate(0, 812) scale(1, -1)"/>
</svg>
