<?xml version="1.0" encoding="utf-8"?>
<!DOCTYPE svg PUBLIC "-//W3C//DTD SVG 1.1//EN" "http://www.w3.org/Graphics/SVG/1.1/DTD/svg11.dtd">
<svg version="1.1" id="图形" xmlns="http://www.w3.org/2000/svg" xmlns:xlink="http://www.w3.org/1999/xlink" x="0px" y="0px" width="1024px" height="1024px" viewBox="0 0 1024 1024" enable-background="new 0 0 1024 1024" xml:space="preserve">
  <path fill="#BEAD80" d="M710.426 214.596l-255.12 0c-15.652 0-28.346-12.678-28.346-28.318s12.694-28.318 28.346-28.318l255.12 0c15.656 0 28.344 12.678 28.344 28.318S726.082 214.596 710.426 214.596zM710.426 753.546c-3.524 0-340.162 0-340.162 0-59.972 0-113.38-55.032-113.38-113.382l-32.758-0.786c-59.978 0-108.974-54.246-108.974-112.608l0-566.932c0-58.352 53.402-113.382 113.38-113.382l425.198 0c59.978 0 113.388 55.032 113.388 113.382l28.352 0c59.976 0 113.38 55.03 113.38 113.392L908.85 470.078 908.85 526.1 710.426 753.546zM653.728-96.854 228.532-96.854c-29.752 0-56.69 27.808-56.69 56.694L171.842 526.77c0 28.88 24.244 55.768 53.996 55.768l31.044 0.934 0-510.24c0-58.364 53.408-113.392 113.38-113.392l340.162 0C710.426-69.046 683.48-96.854 653.728-96.854zM852.16 73.23c0-28.882-26.946-56.704-56.692-56.704L370.264 16.526c-29.752 0-56.692 27.82-56.692 56.704L313.572 640.162c0 28.87 26.94 56.692 56.692 56.692l283.464 0c-0.45-65.296 0-114.11 0-114.11 0-58.882 53.002-112.666 113.388-112.666 0 0 30.116 0 85.042 0L852.158 73.23zM767.118 526.77c-30.196 0-56.692 54.844-56.692 84.292 0 0 0 29.816 0 84.916l0 0.044 141.734-169.252L767.118 526.77zM710.426 356.202l-255.12 0c-15.652 0-28.346-12.688-28.346-28.328s12.694-28.318 28.346-28.318l255.12 0c15.656 0 28.344 12.678 28.344 28.318S726.082 356.202 710.426 356.202z" transform="translate(0, 812) scale(1, -1)"/>
</svg>
