<?xml version="1.0" encoding="utf-8"?>
<!DOCTYPE svg PUBLIC "-//W3C//DTD SVG 1.1//EN" "http://www.w3.org/Graphics/SVG/1.1/DTD/svg11.dtd">
<svg version="1.1" id="图形" xmlns="http://www.w3.org/2000/svg" xmlns:xlink="http://www.w3.org/1999/xlink" x="0px" y="0px" width="1024px" height="1024px" viewBox="0 0 1024 1024" enable-background="new 0 0 1024 1024" xml:space="preserve">
  <path fill="#BEAD80" d="M621.171933 481.699272l239.547795 0 0-38.047548-239.547795 0 0 38.047548ZM621.171933 364.897056l239.547795 0 0-38.046524-239.547795 0 0 38.046524ZM341.669148 217.008844c-107.48092 0-194.925505 87.449701-194.925505 194.937784S234.188228 606.885436 341.669148 606.885436c107.49627 0 194.95211-87.449701 194.95211-194.938807S449.165418 217.008844 341.669148 217.008844zM341.669148 568.838911c-86.50212 0-156.87898-70.383-156.87898-156.892283s70.375837-156.89126 156.87898-156.89126c86.515423 0 156.905586 70.383 156.905586 156.89126S428.184571 568.838911 341.669148 568.838911zM633.222387-36.708672l-38.045501 0c0 139.777487-113.724111 253.494435-253.507738 253.494435-139.768277 0-253.481132-113.716948-253.481132-253.494435l-38.046524 0c0 160.757311 130.777509 291.541983 291.527656 291.541983C502.430552 254.833311 633.222387 124.048639 633.222387-36.708672zM252.608763 617.685409M645.836683-24.261175 673.313477 168.707768 577.578066 168.51027 577.503365 206.555771 717.180568 206.853553 702.647573 104.813552 787.315928 207.85537 935.809937 207.85537 935.809937 598.662147 546.082748 598.662147 546.082748 547.165286 508.036223 547.165286 508.036223 636.708672 973.857485 636.708672 973.857485 169.810892 805.297464 169.810892Z" transform="translate(0, 812) scale(1, -1)"/>
</svg>
