<?xml version="1.0" encoding="utf-8"?>
<!DOCTYPE svg PUBLIC "-//W3C//DTD SVG 1.1//EN" "http://www.w3.org/Graphics/SVG/1.1/DTD/svg11.dtd">
<svg version="1.1" id="图形" xmlns="http://www.w3.org/2000/svg" xmlns:xlink="http://www.w3.org/1999/xlink" x="0px" y="0px" width="1024px" height="1024px" viewBox="0 0 1024 1024" enable-background="new 0 0 1024 1024" xml:space="preserve">
  <path fill="#838a96" d="M374.848 461.712h189.744v-97.28h2.72c26.4 47.344 91.024 97.28 187.344 97.28 200.272 0 237.344-124.688 237.344-286.864v-330.288h-197.792v292.784c0 69.872-1.392 159.712-102.912 159.712-103.008 0-118.688-76.064-118.688-154.608v-297.888h-197.76l0 617.152zM32 461.712h205.712v-617.152h-205.712v617.152zM237.712 633.152c0-56.832-46.032-102.88-102.88-102.88-56.8 0.016-102.832 46.048-102.832 102.88 0 56.816 46.032 102.848 102.848 102.848 56.832 0 102.864-46.032 102.864-102.848z" transform="translate(0, 812) scale(1, -1)"/>
</svg>
