<?xml version="1.0" encoding="utf-8"?>
<!DOCTYPE svg PUBLIC "-//W3C//DTD SVG 1.1//EN" "http://www.w3.org/Graphics/SVG/1.1/DTD/svg11.dtd">
<svg version="1.1" id="图形" xmlns="http://www.w3.org/2000/svg" xmlns:xlink="http://www.w3.org/1999/xlink" x="0px" y="0px" width="1024px" height="1024px" viewBox="0 0 1024 1024" enable-background="new 0 0 1024 1024" xml:space="preserve">
  <path fill="#fff" d="M639.008 321.056c-53.888-68.608-153.296-80.448-221.872-26.48-68.624 53.952-80.48 153.312-26.576 221.904 54 68.64 153.36 80.496 221.936 26.512C681.104 489.024 693.008 389.664 639.008 321.056M233.168-204.304c-22 0-40.192 17.552-40.768 39.664C180.96 245.664 450.528 395.632 462 401.84c19.824 10.64 44.656 3.248 55.296-16.576 10.672-19.824 3.328-44.512-16.448-55.232-9.664-5.328-236.8-134.336-226.864-492.352 0.64-22.56-17.12-41.312-39.664-41.968C233.92-204.304 233.6-204.304 233.168-204.304M514.848 32.528c-27.744 0-55.44 3.008-82.336 8.848-22.048 4.784-36.032 26.48-31.248 48.544 4.768 22 26.64 35.968 48.544 31.216 21.264-4.608 43.088-6.96 65.056-6.96 167.936 0 304.544 136.64 304.544 304.608S682.784 723.36 514.848 723.36c-167.984 0-304.576-136.624-304.576-304.576 0-33.184 5.312-65.856 15.792-97.04 7.104-21.36-4.368-44.528-25.744-51.696-21.36-7.2-44.48 4.32-51.664 25.696-13.296 39.584-20.032 80.976-20.032 123.04 0 212.992 173.232 386.224 386.24 386.224 212.96 0 386.192-173.248 386.192-386.224C901.024 205.824 727.792 32.528 514.848 32.528" transform="translate(0, 812) scale(1, -1)"/>
</svg>
