<?xml version="1.0" encoding="utf-8"?>
<!DOCTYPE svg PUBLIC "-//W3C//DTD SVG 1.1//EN" "http://www.w3.org/Graphics/SVG/1.1/DTD/svg11.dtd">
<svg version="1.1" id="图形" xmlns="http://www.w3.org/2000/svg" xmlns:xlink="http://www.w3.org/1999/xlink" x="0px" y="0px" width="1024px" height="1024px" viewBox="0 0 1024 1024" enable-background="new 0 0 1024 1024" xml:space="preserve">
  <path fill="#fff" d="M728.864 314.944c-12.48 3.712-29.152 6.752-22.624 22.944 14.144 35.136 15.744 73.792 0.416 95.424-28.736 40.576-99.36 29.472-189.44-7.808 0 0.064-28.288-12.224-21.056 9.952 13.856 44.032 11.776 80.896-9.792 102.208-48.896 48.352-178.88-1.824-290.368-111.936C112.48 343.2 64 255.744 64 180.16c0-144.608 187.68-232.544 371.296-232.544 240.704 0 395.776 139.104 395.776 248.832C831.072 262.72 779.616 299.392 728.864 314.944zM435.808-0.576c-146.528-14.272-272.992 51.168-282.496 146.208-9.504 95.04 101.568 183.68 248.096 197.984 146.528 14.304 273.024-51.136 282.496-146.144C693.376 102.4 582.336 13.76 435.808-0.576zM897.632 576.864c-60.096 62.496-148.704 86.304-230.496 69.984l-0.032 0c-18.944-3.808-30.976-21.28-26.944-38.976 4.032-17.728 22.656-29.056 41.568-25.28 58.176 11.584 121.152-5.376 163.872-49.76 42.656-44.384 54.272-104.928 35.968-157.984l0 0c-5.952-17.28 4.128-35.776 22.592-41.376 18.368-5.568 38.144 3.872 44.096 21.12 0 0.032 0 0.096 0 0.096C973.92 429.344 957.728 514.432 897.632 576.864M807.904 494.912c-29.024 31.2-71.872 43.04-111.456 34.88-16.16-3.328-26.464-18.752-23.008-34.432 3.456-15.616 19.36-25.632 35.488-22.24l0-0.032c19.328 3.968 40.32-1.824 54.496-17.024 14.208-15.264 18.016-36.032 11.936-54.272l0.032 0c-5.056-15.232 3.52-31.584 19.264-36.512 15.744-4.864 32.608 3.424 37.696 18.688C844.768 421.248 836.992 463.712 807.904 494.912M484.928 307.936C413.12 326.24 331.968 291.2 300.8 229.28c-31.744-63.168-1.056-133.28 71.488-156.192 75.136-23.712 163.68 12.64 194.464 80.8C597.12 220.512 559.2 289.152 484.928 307.936zM430.08 149.472c-14.592-22.336-45.824-32.128-69.376-21.824-23.2 10.144-30.048 36.096-15.456 57.856 14.432 21.696 44.608 31.36 67.968 21.952C436.864 197.792 444.416 172.032 430.08 149.472zM478.176 208.672c-5.28-8.64-16.928-12.832-26.08-9.216-8.992 3.552-11.808 13.248-6.688 21.728 5.248 8.448 16.48 12.608 25.44 9.184C479.936 227.2 483.2 217.408 478.176 208.672z" transform="translate(0, 812) scale(1, -1)"/>
</svg>
