<?xml version="1.0" encoding="utf-8"?>
<!DOCTYPE svg PUBLIC "-//W3C//DTD SVG 1.1//EN" "http://www.w3.org/Graphics/SVG/1.1/DTD/svg11.dtd">
<svg version="1.1" id="图形" xmlns="http://www.w3.org/2000/svg" xmlns:xlink="http://www.w3.org/1999/xlink" x="0px" y="0px" width="1024px" height="1024px" viewBox="0 0 1024 1024" enable-background="new 0 0 1024 1024" xml:space="preserve">
  <path fill="#fff" d="M371.2 134.4l-56-62.4c5.6-1.6 12.8-9.6 24-24 42.4-51.2 82.4-104.8 125.6-155.2 18.4-20.8 19.2-24.8 22.4-16 13.6 43.2 27.2 83.2 15.2 101.6C472.8 12 400 100 371.2 134.4zM552 244c-5.6 32.8-22.4 72-56 72-40.8 0.8-71.2 0-112 0-16 0-31.2 4.8-28.8 27.2 5.6 63.2 0.8 126.4 7.2 188.8 2.4 25.6 12.8 33.6 36.8 32.8 31.2-0.8 88-0.8 119.2 0 36.8 0.8 45.6-10.4 7.2 54.4C514.4 639.2 498.4 636 480 636c-78.4 0-161.6 0.8-240 0-26.4 0-31.2 13.6-21.6 39.2 8.8 24.8 20 71.2 28 96.8 7.2 24 0 17.6 0 17.6-32.8-19.2-89.6-44-103.2-77.6-32.8-82.4-69.6-186.4-104-268.8-3.2-7.2-5.6-8 18.4-2.4 43.2 11.2 86.4 33.6 107.2 74.4 25.6 49.6 30.4 52.8 84.8 48 16.8-1.6 23.2-6.4 23.2-24-1.6-61.6-3.2-124-2.4-185.6 0-27.2-11.2-40-36.8-39.2-40.8 1.6-87.2-0.8-128 0-26.4 0.8-56-26.4-60-62.4C41.6 240 38.4 236 40 236c47.2 0.8 136.8-1.6 184 0 25.6 0.8 35.2-4.8 31.2-32-9.6-63.2-28-123.2-58.4-179.2C160-44 110.4-103.2 49.6-153.6c-7.2-5.6-17.6-12-15.2-23.2 3.2-12 16-10.4 24.8-10.4 57.6 2.4 113.6 8.8 154.4 57.6 41.6 48.8 66.4 106.4 88.8 165.6l27.2 89.6c4 22.4 11.2 44.8 12 67.2C344 229.6 359.2 236 392 236c42.4 0.8 116.8 0.8 160 0C561.6 236 552.8 235.2 552 244zM592 628l0-728 80 0 23.2-88 120.8 88 184 0L1000 628 592 628zM920-28l-80 0-112.8-72.8L704-28l-32 0L672 556l248 0L920-28z" transform="translate(0, 812) scale(1, -1)"/>
</svg>
