<?xml version="1.0" encoding="utf-8"?>
<!DOCTYPE svg PUBLIC "-//W3C//DTD SVG 1.1//EN" "http://www.w3.org/Graphics/SVG/1.1/DTD/svg11.dtd">
<svg version="1.1" id="图形" xmlns="http://www.w3.org/2000/svg" xmlns:xlink="http://www.w3.org/1999/xlink" x="0px" y="0px" width="1024px" height="1024px" viewBox="0 0 1024 1024" enable-background="new 0 0 1024 1024" xml:space="preserve">
  <path fill="#BEAD80" d="M298.094724 346.847981c-92.908016 0-168.500669 75.598792-168.500669 168.499645 0 92.917226 75.591629 168.500669 168.500669 168.500669 92.908016 0 168.491459-75.583442 168.491459-168.500669C466.586183 422.446773 391.00274 346.847981 298.094724 346.847981zM298.094724 632.648193c-64.683185 0-117.299543-52.599985-117.299543-117.300566 0-64.665789 52.616358-117.299543 117.299543-117.299543S415.394267 450.680814 415.394267 515.347626C415.394267 580.048207 362.777909 632.648193 298.094724 632.648193zM727.601918 346.863331c-92.917226 0-168.499645 75.583442-168.499645 168.501692 0 92.916203 75.582419 168.499645 168.499645 168.499645 92.89983 0 168.499645-75.583442 168.499645-168.499645C896.101563 422.446773 820.501748 346.863331 727.601918 346.863331zM727.601918 632.664565c-64.700581 0-117.299543-52.616358-117.299543-117.299543 0-64.683185 52.598962-117.300566 117.299543-117.300566 64.666812 0 117.300566 52.616358 117.300566 117.300566C844.902484 580.048207 792.269753 632.664565 727.601918 632.664565zM296.36943-81.836475c-92.908016 0-168.500669 75.600839-168.500669 168.501692 0 92.898807 75.591629 168.499645 168.500669 168.499645 92.908016 0 168.500669-75.600839 168.500669-168.499645C464.869075-6.235636 389.277446-81.836475 296.36943-81.836475zM296.36943 203.963737c-64.683185 0-117.299543-52.615335-117.299543-117.29852 0-64.684208 52.616358-117.300566 117.299543-117.300566 64.683185 0 117.300566 52.616358 117.300566 117.300566C413.669996 151.348402 361.052614 203.963737 296.36943 203.963737zM725.868437-81.836475c-92.898807 0-168.499645 75.600839-168.499645 168.501692 0 92.916203 75.600839 168.499645 168.499645 168.499645 92.900853 0 168.501692-75.583442 168.501692-168.499645C894.370129-6.235636 818.76929-81.836475 725.868437-81.836475zM725.868437 203.963737c-64.683185 0-117.299543-52.598962-117.299543-117.29852 0-64.667835 52.616358-117.300566 117.299543-117.300566 64.684208 0 117.300566 52.632731 117.300566 117.300566C843.169003 151.364775 790.552645 203.963737 725.868437 203.963737z" transform="translate(0, 812) scale(1, -1)"/>
</svg>
